<?xml version="1.0" encoding="UTF-8" standalone="no"?>
<!-- Uploaded to: SVG Repo, www.svgrepo.com, Generator: SVG Repo Mixer Tools -->

<svg
   height="800"
   width="800"
   version="1.1"
   id="_x32_"
   viewBox="0 0 512 512"
   xml:space="preserve"
   sodipodi:docname="vete_revert.svg"
   inkscape:version="1.2.2 (732a01da63, 2022-12-09)"
   xmlns:inkscape="http://www.inkscape.org/namespaces/inkscape"
   xmlns:sodipodi="http://sodipodi.sourceforge.net/DTD/sodipodi-0.dtd"
   xmlns="http://www.w3.org/2000/svg"
   xmlns:svg="http://www.w3.org/2000/svg"><defs
   id="defs11" /><sodipodi:namedview
   id="namedview9"
   pagecolor="#ffffff"
   bordercolor="#000000"
   borderopacity="0.25"
   inkscape:showpageshadow="2"
   inkscape:pageopacity="0.0"
   inkscape:pagecheckerboard="0"
   inkscape:deskcolor="#d1d1d1"
   showgrid="false"
   inkscape:zoom="1.28375"
   inkscape:cx="399.61052"
   inkscape:cy="426.09542"
   inkscape:window-width="3840"
   inkscape:window-height="2097"
   inkscape:window-x="3832"
   inkscape:window-y="2172"
   inkscape:window-maximized="1"
   inkscape:current-layer="_x32_" />
<style
   type="text/css"
   id="style2">
	.st0{fill:#000000;}
</style>
<g
   id="g6"
   transform="matrix(-0.99999968,0,0,1,514.88836,0.49853944)">
	<path
   class="st0"
   d="m 495.271,91.194 c -6.567,19.274 -13.559,38.642 -21.21,58.025 l -29.43,-11.618 c 3.666,-9.296 7.194,-18.622 10.596,-27.947 3.15,-8.615 3.25,-17.94 0.338,-26.064 -4.223,-11.78 -8.652,-23.376 -13.127,-34.928 L 459.828,4.394 448.656,0 432.481,41.169 c -11.816,7.596 -23.672,15.039 -35.572,22.21 -7.212,4.336 -12.779,11.186 -15.731,19.258 -3.19,8.747 -6.476,17.427 -9.864,26.027 l -29.43,-11.61 C 348.52,80.227 354.77,62.954 360.762,45.38 L 349.32,41.483 c -5.937,17.434 -12.124,34.524 -18.68,51.131 l -2.875,7.194 c -2.136,5.267 -4.304,10.482 -6.52,15.647 -3.655,8.534 -3.601,18.086 0.117,26.628 3.762,8.637 7.377,17.376 10.816,26.24 L 303.415,153.73 c -3.578,7.055 -7.267,13.97 -11.083,20.739 -4.333,7.699 -5.179,16.841 -2.399,25.58 2.824,8.827 5.41,17.786 7.747,26.906 l -26.621,-18.211 c -4.285,6.278 -8.724,12.402 -13.31,18.402 -5.205,6.812 -7.252,15.596 -5.732,24.599 1.56,9.083 2.82,18.298 3.795,27.66 l -23.646,-21.933 c -5.146,5.553 -10.464,10.989 -15.951,16.307 -6.216,6.058 -9.651,14.584 -9.501,23.792 0.487,28.188 -1.652,57.336 -5.879,86.828 -4.007,2.886 -8.036,5.736 -12.105,8.534 -23.859,16.453 -48.688,31.572 -74.067,45.769 5.043,-5.172 9.376,-10.256 13.145,-15.252 5.077,-6.754 9.124,-13.368 12.526,-19.925 5.106,-9.846 8.754,-19.53 12.281,-29.55 3.524,-10.036 6.923,-20.453 11.23,-32.071 2.872,-7.758 5.538,-15.508 7.988,-23.221 -6.395,4.856 -12.948,9.596 -19.614,14.255 -24.972,17.398 -45.186,33.762 -61.214,49.578 -12.036,11.831 -21.723,23.281 -29.488,34.086 -11.662,16.189 -18.973,30.921 -23.928,42.648 -2.48,5.853 -4.38,10.952 -5.96,14.973 -0.783,2.022 -1.49,3.766 -2.113,5.165 -0.622,1.392 -1.172,2.439 -1.531,2.996 l -0.623,0.974 -22.076,10.264 6.396,13.992 18.471,-8.564 6.058,0.718 c 0.59,0.066 1.578,0.264 2.838,0.579 2.359,0.6 5.622,1.633 9.596,2.856 6.963,2.117 16.123,4.798 27.532,6.637 17.123,2.754 39.407,3.692 67.254,-2.205 27.767,-5.97 61.383,-18.599 99.384,-45 8.226,-5.758 16.405,-11.684 24.5,-17.816 -9.486,1.319 -18.903,2.41 -28.25,3.304 -16.585,1.56 -30.312,1.172 -43.637,0.791 -9.985,-0.286 -19.738,-0.586 -30.096,-0.168 -7.761,0.301 -15.856,0.997 -24.573,2.337 -8.359,1.282 -17.288,3.15 -27.108,5.757 28.672,-15.72 56.79,-32.612 83.814,-51.248 4.15,-2.856 8.263,-5.764 12.358,-8.71 29.672,5.091 60.38,8.344 92.227,8.922 10.376,0.19 21.474,-4.439 30.008,-12.746 7.501,-7.289 14.849,-14.79 22.002,-22.504 l -23.646,-21.94 c 10.343,-0.732 20.774,-1.788 31.265,-3.186 10.383,-1.356 20.818,-7.677 28.115,-17.23 6.402,-8.38 12.588,-16.921 18.508,-25.588 l -26.62,-18.21 c 10.109,-2.249 20.255,-4.791 30.389,-7.633 10.043,-2.799 19.358,-10.431 25.122,-20.673 5.066,-8.995 9.894,-18.049 14.504,-27.133 l -28.759,-14.599 c 9.662,-3.414 19.313,-7.048 28.939,-10.878 9.534,-3.787 17.713,-12.065 22.163,-22.46 2.699,-6.278 5.311,-12.563 7.852,-18.841 l 3.41,-8.527 c 7.74,-19.61 14.794,-39.147 21.412,-58.566 z m -99.643,-3.282 c 1.579,-4.322 4.557,-7.97 8.392,-10.256 7.23,-4.315 14.438,-8.71 21.632,-13.192 1.186,-0.74 2.574,-0.924 3.831,-0.499 1.253,0.425 2.249,1.406 2.74,2.725 2.985,7.956 5.907,15.962 8.753,24.034 1.513,4.278 1.443,9.157 -0.194,13.654 -3.777,10.351 -7.695,20.665 -11.798,30.95 -8.523,3.648 -17.065,7.15 -25.606,10.497 -3.219,1.26 -6.629,-0.205 -7.977,-3.362 -3.571,-8.41 -7.263,-16.716 -11.058,-24.936 3.904,-9.785 7.655,-19.667 11.285,-29.615 z m -60.248,33.609 1.827,-4.3 c 1.026,-2.403 3.766,-3.575 6.15,-2.586 l 27.049,11.238 c 4.527,9.853 8.893,19.837 13.061,29.982 0.747,1.81 0.689,3.934 -0.168,5.802 -4.501,9.867 -9.205,19.617 -14.15,29.242 -1.274,2.491 -3.798,4.029 -6.398,3.956 -2.611,-0.089 -4.82,-1.766 -5.684,-4.278 -6.464,-18.812 -13.746,-36.994 -21.624,-54.736 -2.004,-4.541 -2.033,-9.735 -0.063,-14.32 z m -29.646,60.5 2.183,-3.912 c 1.22,-2.212 4.029,-3.018 6.3,-1.794 l 26.02,14.086 c 3.479,10.102 6.702,20.372 9.636,30.84 0.538,1.876 0.22,3.949 -0.828,5.7 -2.003,3.289 -4.022,6.564 -6.094,9.808 -3.729,5.868 -7.571,11.67 -11.545,17.384 -1.586,2.3 -4.289,3.487 -6.85,3.054 -2.568,-0.432 -4.538,-2.403 -5.069,-4.988 -3.94,-19.426 -9.043,-38.195 -15.046,-56.347 -1.542,-4.652 -1.069,-9.64 1.293,-13.831 z m -35.77,54.472 2.648,-3.501 c 1.476,-1.949 4.329,-2.33 6.413,-0.806 l 23.859,17.5 c 2.124,10.409 3.904,21.002 5.322,31.77 0.26,1.926 -0.348,3.934 -1.641,5.509 -2.447,2.959 -4.919,5.904 -7.439,8.805 -4.546,5.26 -9.197,10.431 -13.966,15.493 -1.912,2.029 -4.754,2.82 -7.23,2.008 -2.476,-0.813 -4.135,-3.047 -4.274,-5.684 -1.022,-19.786 -3.318,-39.103 -6.78,-57.776 -0.886,-4.791 0.231,-9.582 3.088,-13.318 z m -46.285,125.821 c -2.355,-1.128 -3.703,-3.568 -3.48,-6.205 1.666,-19.8 2.252,-39.366 1.637,-58.464 -0.15,-4.886 1.696,-9.523 5.095,-12.827 l 3.157,-3.098 c 1.758,-1.736 4.652,-1.692 6.49,0.124 l 21.02,20.819 c 0.55,10.615 0.744,21.376 0.582,32.254 -0.033,1.935 -0.908,3.854 -2.421,5.216 -2.85,2.586 -5.725,5.15 -8.63,7.677 -5.248,4.578 -10.585,9.069 -15.998,13.456 -2.178,1.759 -5.097,2.176 -7.452,1.048 z m 97.662,19.713 c -4.395,4.271 -10.106,6.717 -15.555,6.703 -21.299,-0.03 -42.11,-1.305 -62.442,-3.59 -2.714,-0.315 -4.78,-2.184 -5.307,-4.748 -0.527,-2.578 0.56,-5.384 2.791,-7.178 5.552,-4.498 11.021,-9.106 16.412,-13.808 2.982,-2.6 5.937,-5.23 8.868,-7.89 1.549,-1.406 3.552,-2.168 5.534,-2.08 11.054,0.483 22.233,0.608 33.547,0.373 l 24.342,24.108 z m 59.706,-67.76 -3.472,4.579 c -3.751,4.908 -9.091,8.204 -14.508,9.017 -21.196,3.157 -42.113,4.952 -62.636,5.435 -2.74,0.066 -5.029,-1.516 -5.886,-4.007 -0.861,-2.475 -0.147,-5.398 1.824,-7.494 4.915,-5.216 9.702,-10.548 14.398,-15.969 2.597,-2.996 5.143,-6.021 7.67,-9.083 1.33,-1.619 3.22,-2.645 5.182,-2.857 11.018,-1.128 22.123,-2.652 33.279,-4.578 l 23.855,17.507 c 2.081,1.524 2.235,4.872 0.294,7.45 z m 44.12,-77.891 c 2.278,1.231 2.901,4.469 1.367,7.245 l -2.748,4.923 c -2.974,5.289 -7.746,9.237 -12.962,10.761 -20.423,6.006 -40.828,10.856 -61.057,14.372 -2.7,0.469 -5.194,-0.755 -6.417,-3.092 -1.223,-2.337 -0.934,-5.318 0.696,-7.684 4.091,-5.882 8.05,-11.86 11.888,-17.904 2.132,-3.333 4.205,-6.702 6.264,-10.087 1.08,-1.802 2.802,-3.084 4.714,-3.568 10.728,-2.673 21.49,-5.706 32.24,-9.054 z m 36.88,-66.449 -2.142,5.032 c -2.319,5.4 -6.527,9.692 -11.497,11.713 -19.409,7.912 -38.946,15.047 -58.472,21.149 -2.596,0.821 -5.248,-0.066 -6.764,-2.205 -1.528,-2.146 -1.642,-5.135 -0.341,-7.692 5.066,-9.846 9.871,-19.815 14.464,-29.88 0.872,-1.912 2.432,-3.392 4.296,-4.08 10.431,-3.817 20.837,-7.89 31.225,-12.168 l 27.056,11.238 c 2.38,0.989 3.369,4.073 2.175,6.893 z"
   id="path4" />
</g>
</svg>
